# Blender v2.79 (sub 0) OBJ File: 'CarrotLow-Poly.blend'
# www.blender.org
mtllib carrot.mtl
o Cube
v -0.604706 0.907012 -1.104910
v -0.997453 0.785495 -0.878157
v -1.284964 0.453506 -0.712162
v -1.390201 0.000000 -0.651404
v -1.284964 -0.453506 -0.712162
v -0.997453 -0.785495 -0.878157
v -0.604706 -0.907012 -1.104910
v -0.211958 -0.785495 -1.331663
v 0.075553 -0.453506 -1.497657
v 0.198067 -0.000000 -1.568390
v 0.075553 0.453505 -1.497657
v -0.211958 0.785495 -1.331663
v 0.318027 1.000000 0.471656
v -0.114986 0.866025 0.721656
v -0.431973 0.500000 0.904669
v -0.518235 -0.000000 0.954472
v -0.431973 -0.500000 0.904668
v -0.114986 -0.866025 0.721656
v 0.318027 -1.000000 0.471656
v 0.751040 -0.866026 0.221656
v 1.068027 -0.500000 0.038643
v 1.184052 -0.000000 -0.028344
v 1.068027 0.499999 0.038643
v 0.751040 0.866025 0.221655
v 0.542379 0.876337 0.860245
v 0.162914 0.758930 1.079330
v -0.114873 0.438168 1.239711
v -0.216551 -0.000000 1.298414
v -0.114873 -0.438169 1.239710
v 0.162914 -0.758930 1.079330
v 0.542379 -0.876337 0.860245
v 0.921844 -0.758930 0.641161
v 1.199632 -0.438169 0.480781
v 1.301309 -0.000000 0.422077
v 1.199632 0.438168 0.480780
v 0.921845 0.758930 0.641161
v 0.700853 0.600031 1.134729
v 0.447473 0.519642 1.295378
v 0.261985 0.300016 1.412981
v 0.194092 -0.000000 1.456026
v 0.261985 -0.300016 1.412980
v 0.447472 -0.519643 1.295378
v 0.700853 -0.600031 1.134729
v 0.954233 -0.519643 0.974081
v 1.139720 -0.300016 0.856478
v 1.224148 -0.000000 0.803886
v 1.139720 0.300015 0.856478
v 0.954233 0.519642 0.974081
v 0.748586 0.381047 1.217405
v 0.592344 0.329997 1.326437
v 0.477968 0.190524 1.406254
v 0.436103 -0.000000 1.435469
v 0.477968 -0.190524 1.406254
v 0.592344 -0.329997 1.326437
v 0.748586 -0.381047 1.217405
v 0.904827 -0.329997 1.108373
v 1.019203 -0.190524 1.028556
v 1.061068 -0.000000 0.999341
v 1.019203 0.190523 1.028556
v 0.904827 0.329996 1.108373
v 0.765159 0.150766 1.246112
v 0.703341 0.130568 1.289252
v 0.658086 0.075383 1.320832
v 0.641522 -0.000000 1.332392
v 0.658086 -0.075383 1.320832
v 0.703340 -0.130568 1.289252
v 0.765159 -0.150767 1.246112
v 0.826978 -0.130568 1.202972
v 0.872233 -0.075384 1.171391
v 0.888797 -0.000000 1.159832
v 0.872233 0.075383 1.171391
v 0.826979 0.130567 1.202972
v 0.770966 -0.000000 1.256168
v -1.921386 0.670525 -3.307150
v -2.211731 0.580691 -3.139519
v -2.424279 0.335262 -3.016804
v -2.502077 0.000000 -2.971888
v -2.424279 -0.335262 -3.016804
v -2.211731 -0.580691 -3.139519
v -1.921386 -0.670524 -3.307150
v -1.631040 -0.580691 -3.474781
v -1.418492 -0.335262 -3.597495
v -1.327922 -0.000000 -3.649786
v -1.418492 0.335262 -3.597496
v -1.631040 0.580691 -3.474781
v -2.910120 0.495201 -5.067842
v -3.124549 0.428857 -4.944041
v -3.281521 0.247601 -4.853413
v -3.338977 0.000000 -4.820241
v -3.281521 -0.247600 -4.853413
v -3.124549 -0.428857 -4.944041
v -2.910120 -0.495201 -5.067842
v -2.695692 -0.428857 -5.191642
v -2.538720 -0.247601 -5.282270
v -2.471831 -0.000000 -5.320889
v -2.538719 0.247601 -5.282270
v -2.695692 0.428857 -5.191642
v -3.418022 0.375341 -5.947993
v -3.580550 0.325055 -5.854157
v -3.699528 0.187671 -5.785465
v -3.743077 0.000000 -5.760322
v -3.699528 -0.187670 -5.785465
v -3.580550 -0.325054 -5.854157
v -3.418022 -0.375341 -5.947993
v -3.255495 -0.325055 -6.041828
v -3.136517 -0.187670 -6.110520
v -3.085818 0.000000 -6.139791
v -3.136517 0.187670 -6.110520
v -3.255495 0.325055 -6.041828
v -3.578266 0.308410 -6.274544
v -3.711811 0.267091 -6.197442
v -3.809573 0.154205 -6.140998
v -3.845357 0.000000 -6.120339
v -3.809573 -0.154205 -6.140998
v -3.711811 -0.267091 -6.197442
v -3.578266 -0.308410 -6.274544
v -3.444720 -0.267091 -6.351646
v -3.346958 -0.154205 -6.408090
v -3.305300 0.000000 -6.432141
v -3.346958 0.154205 -6.408090
v -3.444720 0.267091 -6.351646
v -3.678862 0.160431 -6.449330
v -3.753465 0.138937 -6.419855
v -3.808079 0.080215 -6.398278
v -3.828069 0.000000 -6.390380
v -3.808079 -0.080215 -6.398278
v -3.753465 -0.138937 -6.419855
v -3.678862 -0.160430 -6.449330
v -3.604258 -0.138937 -6.478805
v -3.549644 -0.080215 -6.500382
v -3.526372 0.000000 -6.509577
v -3.549644 0.080215 -6.500382
v -3.604258 0.138937 -6.478805
v -3.717817 0.067097 -6.553801
v -3.749019 0.058108 -6.541473
v -3.771860 0.033549 -6.532448
v -3.780220 0.000000 -6.529145
v -3.771860 -0.033548 -6.532448
v -3.749019 -0.058108 -6.541473
v -3.717817 -0.067097 -6.553801
v -3.686615 -0.058108 -6.566128
v -3.663774 -0.033548 -6.575152
v -3.654041 0.000000 -6.578998
v -3.663774 0.033549 -6.575152
v -3.686615 0.058108 -6.566128
v -3.748208 0.000000 -6.633200
vt 0.751488 0.468517
vt 0.802081 0.656893
vt 0.707982 0.503393
vt 0.630377 0.569339
vt 0.704285 0.715621
vt 0.595222 0.602400
vt 0.626970 0.857956
vt 0.417071 0.798812
vt 0.456536 0.753392
vt 0.659396 0.774279
vt 0.492647 0.711428
vt 0.527042 0.672606
vt 0.798765 0.430268
vt 0.848531 0.644012
vt 0.667819 0.536576
vt 0.731752 0.692354
vt 0.641776 0.811938
vt 0.680045 0.742591
vt 0.560998 0.636388
vt 0.850600 0.386047
vt 0.907896 0.634474
vt 0.763990 0.673027
vt 0.614426 0.916304
vt 0.371751 0.848355
vt 0.673283 0.864403
vt 0.690480 0.789054
vt 0.989344 0.626949
vt 0.907157 0.695104
vt 0.778744 0.704064
vt 0.706353 0.761073
vt 0.690576 0.992694
vt 0.601052 0.992545
vt 0.812967 0.694219
vt 0.749934 0.718713
vt 0.726414 0.738263
vt 0.675186 0.917702
vt 0.679114 0.822836
vt 0.854607 0.690378
vt 0.789425 0.736000
vt 0.766488 0.745991
vt 0.717880 0.861239
vt 0.722019 0.801026
vt 0.935797 0.782676
vt 0.888158 0.749056
vt 0.816838 0.731393
vt 0.732869 0.778493
vt 0.764020 0.951863
vt 0.849424 0.734300
vt 0.747765 0.760288
vt 0.731196 0.901192
vt 0.716306 0.828316
vt 0.794925 0.757723
vt 0.776742 0.764215
vt 0.747010 0.852842
vt 0.743587 0.807321
vt 0.886750 0.812819
vt 0.865048 0.779794
vt 0.816172 0.756535
vt 0.750725 0.789361
vt 0.796439 0.902020
vt 0.840040 0.762755
vt 0.761736 0.774726
vt 0.763376 0.878785
vt 0.741622 0.828586
vt 0.829337 0.804970
vt 0.820899 0.793837
vt 0.799342 0.786395
vt 0.789192 0.788693
vt 0.778940 0.834528
vt 0.772192 0.812666
vt 0.832632 0.821327
vt 0.810285 0.787862
vt 0.774828 0.802591
vt 0.806290 0.847175
vt 0.780522 0.794105
vt 0.789876 0.843376
vt 0.773295 0.823677
vt 0.799264 0.813430
vt 0.503735 0.255769
vt 0.417346 0.356504
vt 0.214391 0.525798
vt 0.252337 0.499766
vt 0.288358 0.472814
vt 0.322649 0.445073
vt 0.530943 0.218502
vt 0.446861 0.324549
vt 0.355445 0.416562
vt 0.557298 0.178956
vt 0.475664 0.291051
vt 0.387009 0.387180
vt 0.174231 0.550930
vt 0.254190 0.162019
vt 0.272271 0.136051
vt 0.213396 0.208379
vt 0.048740 0.309036
vt 0.080954 0.295512
vt 0.288932 0.108188
vt 0.234589 0.186117
vt 0.111129 0.281002
vt 0.165897 0.247823
vt 0.304300 0.078413
vt 0.139437 0.265148
vt 0.190539 0.228924
vt 0.318736 0.046565
vt 0.182787 0.004895
vt 0.159210 0.097590
vt 0.167840 0.078762
vt 0.135916 0.128667
vt 0.010904 0.172037
vt 0.039382 0.169406
vt 0.174507 0.057463
vt 0.148572 0.114186
vt 0.063666 0.165234
vt 0.104198 0.151074
vt 0.179359 0.033299
vt 0.085137 0.159169
vt 0.121084 0.140910
vt 0.100689 0.112998
vt 0.132502 0.030768
vt 0.126923 0.008883
vt 0.128109 0.080115
vt 0.132483 0.065529
vt 0.112048 0.104118
vt 0.038163 0.122508
vt 0.134113 0.049205
vt 0.121244 0.093012
vt 0.056543 0.124634
vt 0.087606 0.119498
vt 0.072904 0.123462
vt 0.060391 0.096298
vt 0.070543 0.096675
vt 0.079626 0.094700
vt 0.087509 0.090942
vt 0.095670 0.030430
vt 0.105770 0.062419
vt 0.094190 0.085752
vt 0.038852 0.085687
vt 0.049581 0.092814
vt 0.105677 0.052259
vt 0.099565 0.079219
vt 0.102496 0.041354
vt 0.103542 0.071443
vt 0.084965 0.070128
vt 0.086697 0.066092
vt 0.070228 0.078161
vt 0.078830 0.076095
vt 0.080543 0.048518
vt 0.087270 0.061587
vt 0.082258 0.073482
vt 0.057353 0.071072
vt 0.061139 0.074894
vt 0.086506 0.056897
vt 0.065562 0.077265
vt 0.074747 0.077713
vt 0.084258 0.052410
vt 0.071792 0.062720
vt 0.977044 0.713926
vt 0.016447 0.116322
vn 0.1985 -0.9647 -0.1731
vn -0.8489 -0.2587 0.4609
vn 0.5849 0.7061 -0.3992
vn -0.2477 0.9648 0.0881
vn 0.5849 -0.7061 -0.3992
vn -0.6342 -0.7064 0.3143
vn 0.1985 0.9647 -0.1731
vn -0.6342 0.7064 0.3143
vn 0.7979 -0.2973 -0.5244
vn -0.2477 -0.9648 0.0881
vn -0.8489 0.2587 0.4609
vn 0.7979 0.2973 -0.5244
vn 0.3452 0.9334 0.0977
vn -0.4631 0.6833 0.5644
vn 0.9370 -0.2501 -0.2439
vn -0.0880 -0.9334 0.3478
vn -0.6955 0.1890 0.6932
vn 0.9370 0.2501 -0.2439
vn 0.3452 -0.9334 0.0977
vn -0.7271 -0.2542 0.6378
vn 0.7204 0.6833 -0.1189
vn -0.0880 0.9334 0.3478
vn 0.7204 -0.6833 -0.1189
vn -0.4631 -0.6833 0.5644
vn -0.1622 -0.5688 0.8063
vn 0.4982 0.7263 0.4736
vn -0.1608 0.5492 0.8201
vn 0.9459 -0.2252 0.2337
vn 0.1593 -0.7592 0.6311
vn -0.3466 0.2031 0.9158
vn 0.9610 0.1970 0.1942
vn 0.5139 -0.7347 0.4429
vn -0.3503 -0.2102 0.9127
vn 0.7896 0.5244 0.3187
vn 0.1506 0.7389 0.6568
vn 0.8020 -0.5193 0.2952
vn 0.2071 -0.3524 0.9126
vn 0.5784 0.3657 0.7292
vn 0.2137 0.3147 0.9248
vn 0.7914 -0.0810 0.6058
vn 0.4106 -0.4441 0.7963
vn 0.0921 0.1210 0.9884
vn 0.7637 0.1032 0.6372
vn 0.6091 -0.3929 0.6889
vn 0.0839 -0.1330 0.9876
vn 0.7116 0.2492 0.6569
vn 0.3975 0.3987 0.8265
vn 0.7401 -0.2495 0.6246
vn 0.6506 -0.1029 0.7524
vn 0.4800 -0.1048 0.8710
vn 0.5972 0.1414 0.7895
vn 0.4800 0.1048 0.8710
vn 0.6812 -0.0376 0.7312
vn 0.5348 -0.1423 0.8329
vn 0.4482 0.0385 0.8931
vn 0.6812 0.0376 0.7312
vn 0.5972 -0.1414 0.7895
vn 0.4482 -0.0385 0.8931
vn 0.6506 0.1029 0.7524
vn 0.5348 0.1423 0.8329
vn 0.5536 0.0766 0.8292
vn 0.6162 -0.0557 0.7856
vn 0.5243 -0.0563 0.8497
vn 0.5873 0.0764 0.8058
vn 0.5243 0.0563 0.8497
vn 0.6328 -0.0204 0.7740
vn 0.5536 -0.0766 0.8292
vn 0.5073 0.0206 0.8615
vn 0.6328 0.0204 0.7740
vn 0.5873 -0.0764 0.8058
vn 0.5073 -0.0206 0.8615
vn 0.6162 0.0557 0.7856
vn 0.1769 -0.9618 -0.2090
vn -0.8713 -0.2581 0.4175
vn 0.5597 0.7036 -0.4378
vn -0.2657 0.9624 0.0555
vn 0.5597 -0.7036 -0.4378
vn -0.6495 -0.7050 0.2849
vn 0.1769 0.9618 -0.2090
vn -0.6495 0.7050 0.2849
vn 0.7703 -0.2962 -0.5647
vn -0.2657 -0.9624 0.0555
vn -0.8713 0.2581 0.4175
vn 0.7703 0.2962 -0.5647
vn -0.2666 -0.9623 0.0539
vn -0.8802 0.2576 0.3985
vn 0.7880 0.2970 -0.5394
vn 0.1832 -0.9628 -0.1987
vn -0.8802 -0.2576 0.3985
vn 0.5730 0.7051 -0.4177
vn -0.2666 0.9623 0.0539
vn 0.5730 -0.7051 -0.4177
vn -0.6557 -0.7041 0.2725
vn 0.1832 0.9628 -0.1987
vn -0.6557 0.7041 0.2725
vn 0.7880 -0.2970 -0.5394
vn 0.7643 -0.2958 -0.5730
vn -0.2793 -0.9597 0.0305
vn -0.8878 0.2571 0.3816
vn 0.7643 0.2958 -0.5730
vn 0.1661 -0.9597 -0.2266
vn -0.8878 -0.2571 0.3816
vn 0.5519 0.7026 -0.4492
vn -0.2793 0.9597 0.0305
vn 0.5519 -0.7026 -0.4492
vn -0.6651 -0.7025 0.2531
vn 0.1661 0.9597 -0.2266
vn -0.6651 0.7026 0.2531
vn -0.7075 0.6897 0.1541
vn 0.7639 -0.2958 -0.5735
vn -0.3160 -0.9480 -0.0392
vn -0.9310 0.2515 0.2645
vn 0.7639 0.2958 -0.5735
vn 0.1420 -0.9537 -0.2651
vn -0.9310 -0.2515 0.2645
vn 0.5426 0.7012 -0.4626
vn -0.3160 0.9480 -0.0392
vn 0.5426 -0.7012 -0.4626
vn -0.7075 -0.6897 0.1541
vn 0.1420 0.9537 -0.2651
vn -0.0291 0.7711 -0.6361
vn -0.7526 0.6316 -0.1860
vn 0.3217 -0.2302 -0.9184
vn -0.4721 -0.7879 -0.3954
vn -0.9699 0.2356 -0.0621
vn 0.3428 0.2046 -0.9169
vn -0.1219 -0.7714 -0.6245
vn -0.9738 -0.2169 -0.0680
vn 0.2357 0.5207 -0.8205
vn -0.3965 0.8256 -0.4015
vn 0.1690 -0.5540 -0.8152
vn -0.7872 -0.5865 -0.1905
vn -0.7413 -0.5461 -0.3901
vn -0.0426 0.7529 -0.6568
vn -0.7413 0.5461 -0.3901
vn 0.4646 -0.2327 -0.8544
vn -0.4186 -0.7492 -0.5132
vn -0.9264 0.1994 -0.3194
vn 0.4646 0.2327 -0.8544
vn -0.0426 -0.7529 -0.6568
vn -0.9264 -0.1994 -0.3194
vn 0.2861 0.5535 -0.7822
vn -0.4186 0.7492 -0.5132
vn 0.2861 -0.5535 -0.7822
vn -0.7453 -0.5603 -0.3615
vn -0.0306 0.7692 -0.6383
vn -0.7453 0.5603 -0.3615
vn 0.4846 -0.2371 -0.8420
vn -0.4145 -0.7671 -0.4896
vn -0.9355 0.2048 -0.2878
vn 0.4846 0.2371 -0.8420
vn -0.0306 -0.7692 -0.6383
vn -0.9355 -0.2048 -0.2878
vn 0.3035 0.5644 -0.7677
vn -0.4145 0.7671 -0.4896
vn 0.3035 -0.5644 -0.7677
vn -0.8698 -0.1952 0.4532
vn 0.8135 -0.2586 -0.5209
vn -0.8698 0.1952 0.4532
vn 0.8135 0.2586 -0.5209
vn -0.7271 0.2542 0.6378
vn -0.6955 -0.1890 0.6932
vn -0.1608 -0.5492 0.8201
vn 0.5139 0.7347 0.4429
vn -0.1622 0.5688 0.8063
vn 0.9610 -0.1970 0.1942
vn 0.1506 -0.7389 0.6568
vn -0.3503 0.2102 0.9127
vn 0.9459 0.2252 0.2337
vn 0.4982 -0.7263 0.4736
vn -0.3466 -0.2031 0.9158
vn 0.8020 0.5193 0.2952
vn 0.1593 0.7592 0.6311
vn 0.7896 -0.5244 0.3187
vn 0.2137 -0.3147 0.9248
vn 0.6091 0.3929 0.6889
vn 0.2071 0.3524 0.9126
vn 0.7637 -0.1032 0.6372
vn 0.3975 -0.3987 0.8265
vn 0.0839 0.1330 0.9876
vn 0.7914 0.0810 0.6058
vn 0.5784 -0.3657 0.7292
vn 0.0921 -0.1210 0.9884
vn 0.7401 0.2495 0.6246
vn 0.4106 0.4441 0.7963
vn 0.7116 -0.2492 0.6569
vn -0.6651 -0.7026 0.2531
vn -0.6651 0.7025 0.2531
vn -0.1219 0.7714 -0.6245
vn -0.7872 0.5865 -0.1905
vn 0.3428 -0.2046 -0.9169
vn -0.3965 -0.8256 -0.4015
vn -0.9738 0.2169 -0.0680
vn 0.3217 0.2302 -0.9184
vn -0.0291 -0.7711 -0.6361
vn -0.9699 -0.2356 -0.0621
vn 0.1690 0.5540 -0.8152
vn -0.4721 0.7879 -0.3954
vn 0.2357 -0.5207 -0.8205
vn -0.7526 -0.6316 -0.1860
usemtl Material.001
s off
f 8/1/1 19/2/1 7/3/1
f 5/4/2 16/5/2 4/6/2
f 24/7/3 11/8/3 12/9/3
f 14/10/4 1/11/4 2/12/4
f 9/13/5 20/14/5 8/1/5
f 6/15/6 17/16/6 5/4/6
f 13/17/7 12/9/7 1/11/7
f 15/18/8 2/12/8 3/19/8
f 10/20/9 21/21/9 9/13/9
f 7/3/10 18/22/10 6/15/10
f 16/5/11 3/19/11 4/6/11
f 23/23/12 10/24/12 11/8/12
f 13/17/13 36/25/13 24/7/13
f 15/18/14 26/26/14 14/10/14
f 22/27/15 33/28/15 21/21/15
f 19/2/16 30/29/16 18/22/16
f 16/5/17 27/30/17 15/18/17
f 23/23/18 34/31/18 22/32/18
f 20/14/19 31/33/19 19/2/19
f 16/5/20 29/34/20 28/35/20
f 23/23/21 36/25/21 35/36/21
f 13/17/22 26/26/22 25/37/22
f 21/21/23 32/38/23 20/14/23
f 17/16/24 30/29/24 29/34/24
f 29/34/25 42/39/25 41/40/25
f 25/37/26 48/41/26 36/25/26
f 27/30/27 38/42/27 26/26/27
f 33/28/28 46/43/28 45/44/28
f 30/29/29 43/45/29 42/39/29
f 28/35/30 39/46/30 27/30/30
f 35/36/31 46/47/31 34/31/31
f 31/33/32 44/48/32 43/45/32
f 28/35/33 41/40/33 40/49/33
f 36/25/34 47/50/34 35/36/34
f 26/26/35 37/51/35 25/37/35
f 32/38/36 45/44/36 44/48/36
f 41/40/37 54/52/37 53/53/37
f 37/51/38 60/54/38 48/41/38
f 39/46/39 50/55/39 38/42/39
f 45/44/40 58/56/40 57/57/40
f 42/39/41 55/58/41 54/52/41
f 40/49/42 51/59/42 39/46/42
f 47/50/43 58/60/43 46/47/43
f 43/45/44 56/61/44 55/58/44
f 40/49/45 53/53/45 52/62/45
f 48/41/46 59/63/46 47/50/46
f 38/42/47 49/64/47 37/51/47
f 44/48/48 57/57/48 56/61/48
f 56/61/49 69/65/49 68/66/49
f 53/53/50 66/67/50 65/68/50
f 49/64/51 72/69/51 60/54/51
f 51/59/52 62/70/52 50/55/52
f 57/57/53 70/71/53 69/65/53
f 54/52/54 67/72/54 66/67/54
f 52/62/55 63/73/55 51/59/55
f 59/63/56 70/74/56 58/60/56
f 55/58/57 68/66/57 67/72/57
f 52/62/58 65/68/58 64/75/58
f 60/54/59 71/76/59 59/63/59
f 50/55/60 61/77/60 49/64/60
f 61/77/61 62/70/61 73/78/61
f 68/66/62 69/65/62 73/78/62
f 65/68/63 66/67/63 73/78/63
f 72/69/64 61/77/64 73/78/64
f 62/70/65 63/73/65 73/78/65
f 69/65/66 70/71/66 73/78/66
f 66/67/67 67/72/67 73/78/67
f 63/73/68 64/75/68 73/78/68
f 70/74/69 71/76/69 73/78/69
f 67/72/70 68/66/70 73/78/70
f 64/75/71 65/68/71 73/78/71
f 71/76/72 72/69/72 73/78/72
f 7/3/73 81/79/73 8/1/73
f 4/6/74 78/80/74 5/4/74
f 12/9/75 84/81/75 85/82/75
f 2/12/76 74/83/76 75/84/76
f 8/1/77 82/85/77 9/13/77
f 5/4/78 79/86/78 6/15/78
f 1/11/79 85/82/79 74/83/79
f 3/19/80 75/84/80 76/87/80
f 9/13/81 83/88/81 10/20/81
f 6/15/82 80/89/82 7/3/82
f 4/6/83 76/87/83 77/90/83
f 11/8/84 83/91/84 84/81/84
f 80/89/85 91/92/85 92/93/85
f 76/87/86 89/94/86 77/90/86
f 84/81/87 95/95/87 96/96/87
f 81/79/88 92/93/88 93/97/88
f 78/80/89 89/94/89 90/98/89
f 84/81/90 97/99/90 85/82/90
f 74/83/91 87/100/91 75/84/91
f 82/85/92 93/97/92 94/101/92
f 79/86/93 90/98/93 91/92/93
f 85/82/94 86/102/94 74/83/94
f 75/84/95 88/103/95 76/87/95
f 82/85/96 95/104/96 83/88/96
f 94/101/97 107/105/97 95/104/97
f 92/93/98 103/106/98 104/107/98
f 88/103/99 101/108/99 89/94/99
f 96/96/100 107/109/100 108/110/100
f 93/97/101 104/107/101 105/111/101
f 90/98/102 101/108/102 102/112/102
f 96/96/103 109/113/103 97/99/103
f 86/102/104 99/114/104 87/100/104
f 94/101/105 105/111/105 106/115/105
f 91/92/106 102/112/106 103/106/106
f 97/99/107 98/116/107 86/102/107
f 87/100/108 100/117/108 88/103/108
f 99/114/109 112/118/109 100/117/109
f 107/105/110 118/119/110 119/120/110
f 104/107/111 115/121/111 116/122/111
f 100/117/112 113/123/112 101/108/112
f 107/109/113 120/124/113 108/110/113
f 105/111/114 116/122/114 117/125/114
f 102/112/115 113/123/115 114/126/115
f 108/110/116 121/127/116 109/113/116
f 98/116/117 111/128/117 99/114/117
f 106/115/118 117/125/118 118/119/118
f 103/106/119 114/126/119 115/121/119
f 109/113/120 110/129/120 98/116/120
f 110/129/121 133/130/121 122/131/121
f 112/118/122 123/132/122 124/133/122
f 118/119/123 131/134/123 119/120/123
f 115/121/124 128/135/124 116/122/124
f 113/123/125 124/133/125 125/136/125
f 120/124/126 131/137/126 132/138/126
f 116/122/127 129/139/127 117/125/127
f 113/123/128 126/140/128 114/126/128
f 121/127/129 132/138/129 133/130/129
f 111/128/130 122/131/130 123/132/130
f 117/125/131 130/141/131 118/119/131
f 114/126/132 127/142/132 115/121/132
f 127/142/133 138/143/133 139/144/133
f 133/130/134 134/145/134 122/131/134
f 123/132/135 136/146/135 124/133/135
f 130/141/136 143/147/136 131/134/136
f 128/135/137 139/144/137 140/148/137
f 124/133/138 137/149/138 125/136/138
f 132/138/139 143/150/139 144/151/139
f 129/139/140 140/148/140 141/152/140
f 126/140/141 137/149/141 138/143/141
f 132/138/142 145/153/142 133/130/142
f 122/131/143 135/154/143 123/132/143
f 130/141/144 141/152/144 142/155/144
f 139/144/145 138/143/145 146/156/145
f 134/145/146 145/153/146 146/156/146
f 136/146/147 135/154/147 146/156/147
f 143/147/148 142/155/148 146/156/148
f 140/148/149 139/144/149 146/156/149
f 137/149/150 136/146/150 146/156/150
f 144/151/151 143/150/151 146/156/151
f 141/152/152 140/148/152 146/156/152
f 138/143/153 137/149/153 146/156/153
f 145/153/154 144/151/154 146/156/154
f 135/154/155 134/145/155 146/156/155
f 142/155/156 141/152/156 146/156/156
f 8/1/1 20/14/1 19/2/1
f 5/4/157 17/16/157 16/5/157
f 24/7/3 23/23/3 11/8/3
f 14/10/4 13/17/4 1/11/4
f 9/13/5 21/21/5 20/14/5
f 6/15/6 18/22/6 17/16/6
f 13/17/7 24/7/7 12/9/7
f 15/18/8 14/10/8 2/12/8
f 10/20/158 22/27/158 21/21/158
f 7/3/10 19/2/10 18/22/10
f 16/5/159 15/18/159 3/19/159
f 23/23/160 22/32/160 10/24/160
f 13/17/13 25/37/13 36/25/13
f 15/18/14 27/30/14 26/26/14
f 22/27/15 34/157/15 33/28/15
f 19/2/16 31/33/16 30/29/16
f 16/5/161 28/35/161 27/30/161
f 23/23/18 35/36/18 34/31/18
f 20/14/19 32/38/19 31/33/19
f 16/5/162 17/16/162 29/34/162
f 23/23/21 24/7/21 36/25/21
f 13/17/22 14/10/22 26/26/22
f 21/21/23 33/28/23 32/38/23
f 17/16/24 18/22/24 30/29/24
f 29/34/163 30/29/163 42/39/163
f 25/37/164 37/51/164 48/41/164
f 27/30/165 39/46/165 38/42/165
f 33/28/166 34/157/166 46/43/166
f 30/29/167 31/33/167 43/45/167
f 28/35/168 40/49/168 39/46/168
f 35/36/169 47/50/169 46/47/169
f 31/33/170 32/38/170 44/48/170
f 28/35/171 29/34/171 41/40/171
f 36/25/172 48/41/172 47/50/172
f 26/26/173 38/42/173 37/51/173
f 32/38/174 33/28/174 45/44/174
f 41/40/175 42/39/175 54/52/175
f 37/51/176 49/64/176 60/54/176
f 39/46/177 51/59/177 50/55/177
f 45/44/178 46/43/178 58/56/178
f 42/39/179 43/45/179 55/58/179
f 40/49/180 52/62/180 51/59/180
f 47/50/181 59/63/181 58/60/181
f 43/45/182 44/48/182 56/61/182
f 40/49/183 41/40/183 53/53/183
f 48/41/184 60/54/184 59/63/184
f 38/42/185 50/55/185 49/64/185
f 44/48/186 45/44/186 57/57/186
f 56/61/49 57/57/49 69/65/49
f 53/53/50 54/52/50 66/67/50
f 49/64/51 61/77/51 72/69/51
f 51/59/52 63/73/52 62/70/52
f 57/57/53 58/56/53 70/71/53
f 54/52/54 55/58/54 67/72/54
f 52/62/55 64/75/55 63/73/55
f 59/63/56 71/76/56 70/74/56
f 55/58/57 56/61/57 68/66/57
f 52/62/58 53/53/58 65/68/58
f 60/54/59 72/69/59 71/76/59
f 50/55/60 62/70/60 61/77/60
f 7/3/73 80/89/73 81/79/73
f 4/6/74 77/90/74 78/80/74
f 12/9/75 11/8/75 84/81/75
f 2/12/76 1/11/76 74/83/76
f 8/1/77 81/79/77 82/85/77
f 5/4/78 78/80/78 79/86/78
f 1/11/79 12/9/79 85/82/79
f 3/19/80 2/12/80 75/84/80
f 9/13/81 82/85/81 83/88/81
f 6/15/82 79/86/82 80/89/82
f 4/6/83 3/19/83 76/87/83
f 11/8/84 10/24/84 83/91/84
f 80/89/85 79/86/85 91/92/85
f 76/87/86 88/103/86 89/94/86
f 84/81/87 83/91/87 95/95/87
f 81/79/88 80/89/88 92/93/88
f 78/80/89 77/90/89 89/94/89
f 84/81/90 96/96/90 97/99/90
f 74/83/91 86/102/91 87/100/91
f 82/85/92 81/79/92 93/97/92
f 79/86/93 78/80/93 90/98/93
f 85/82/94 97/99/94 86/102/94
f 75/84/95 87/100/95 88/103/95
f 82/85/96 94/101/96 95/104/96
f 94/101/97 106/115/97 107/105/97
f 92/93/98 91/92/98 103/106/98
f 88/103/99 100/117/99 101/108/99
f 96/96/100 95/95/100 107/109/100
f 93/97/101 92/93/101 104/107/101
f 90/98/102 89/94/102 101/108/102
f 96/96/103 108/110/103 109/113/103
f 86/102/104 98/116/104 99/114/104
f 94/101/105 93/97/105 105/111/105
f 91/92/187 90/98/187 102/112/187
f 97/99/107 109/113/107 98/116/107
f 87/100/188 99/114/188 100/117/188
f 99/114/109 111/128/109 112/118/109
f 107/105/110 106/115/110 118/119/110
f 104/107/111 103/106/111 115/121/111
f 100/117/112 112/118/112 113/123/112
f 107/109/113 119/158/113 120/124/113
f 105/111/114 104/107/114 116/122/114
f 102/112/115 101/108/115 113/123/115
f 108/110/116 120/124/116 121/127/116
f 98/116/117 110/129/117 111/128/117
f 106/115/118 105/111/118 117/125/118
f 103/106/119 102/112/119 114/126/119
f 109/113/120 121/127/120 110/129/120
f 110/129/189 121/127/189 133/130/189
f 112/118/190 111/128/190 123/132/190
f 118/119/191 130/141/191 131/134/191
f 115/121/192 127/142/192 128/135/192
f 113/123/193 112/118/193 124/133/193
f 120/124/194 119/158/194 131/137/194
f 116/122/195 128/135/195 129/139/195
f 113/123/196 125/136/196 126/140/196
f 121/127/197 120/124/197 132/138/197
f 111/128/198 110/129/198 122/131/198
f 117/125/199 129/139/199 130/141/199
f 114/126/200 126/140/200 127/142/200
f 127/142/133 126/140/133 138/143/133
f 133/130/134 145/153/134 134/145/134
f 123/132/135 135/154/135 136/146/135
f 130/141/136 142/155/136 143/147/136
f 128/135/137 127/142/137 139/144/137
f 124/133/138 136/146/138 137/149/138
f 132/138/139 131/137/139 143/150/139
f 129/139/140 128/135/140 140/148/140
f 126/140/141 125/136/141 137/149/141
f 132/138/142 144/151/142 145/153/142
f 122/131/143 134/145/143 135/154/143
f 130/141/144 129/139/144 141/152/144
