# Blender v2.79 (sub 0) OBJ File: 'simple_table.blend'
# www.blender.org
mtllib simple_table.mtl
o table__Cube.001
v 1.967568 1.962762 -1.025145
v 1.967568 2.029072 -1.025145
v 1.967569 1.962762 1.650871
v 1.967569 2.029072 1.650871
v -1.958567 1.962762 -1.025143
v -1.958567 2.029072 -1.025143
v -1.958566 1.962762 1.650872
v -1.958566 2.029072 1.650872
v 1.999727 1.995917 -1.047064
v 1.999728 1.995917 1.672790
v -1.990724 1.995917 1.672791
v -1.990725 1.995917 -1.047063
vt 0.366211 0.000000
vt 0.488281 0.333333
vt 0.366211 0.333333
vt 0.000000 0.500000
vt 0.244141 0.333333
vt 0.244141 0.500000
vt 0.122070 0.000000
vt 0.244141 0.333333
vt 0.122070 0.333333
vt 0.488281 0.500000
vt 0.244141 0.666667
vt 0.244141 0.500000
vt 0.732422 0.333333
vt 0.488281 0.000000
vt 0.732422 0.000000
vt 0.702582 -0.006075
vt 1.002496 0.403408
vt 0.702582 0.403408
vt 0.488281 0.333333
vt 0.244141 0.333333
vt 0.000000 0.000000
vt 0.000000 0.333333
vt 0.000000 0.666667
vt 0.244141 0.666667
vt 0.244141 0.000000
vt 0.244141 0.333333
vt 0.488281 0.000000
vt 0.000000 0.333333
vt 0.244141 0.000000
vt 0.488281 0.666667
vt 0.488281 0.333333
vt 1.002496 -0.006075
vn 0.7178 -0.6962 -0.0000
vn 0.0000 -0.5515 0.8342
vn -0.7178 -0.6962 0.0000
vn -0.0000 -0.5515 -0.8342
vn 0.0000 -1.0000 0.0000
vn 0.0000 1.0000 0.0000
vn -0.0000 0.5515 -0.8342
vn -0.7178 0.6962 0.0000
vn 0.0000 0.5515 0.8342
vn 0.7178 0.6962 -0.0000
usemtl Material.003
s off
f 10/1/1 1/2/1 9/3/1
f 11/4/2 3/5/2 10/6/2
f 12/7/3 7/8/3 11/9/3
f 9/10/4 5/11/4 12/12/4
f 3/13/5 5/14/5 1/15/5
f 8/16/6 2/17/6 6/18/6
f 2/19/7 12/12/7 6/20/7
f 6/21/8 11/9/8 8/22/8
f 8/23/9 10/6/9 4/24/9
f 4/25/10 9/3/10 2/26/10
f 10/1/1 3/27/1 1/2/1
f 11/4/2 7/28/2 3/5/2
f 12/7/3 5/29/3 7/8/3
f 9/10/4 1/30/4 5/11/4
f 3/13/5 7/31/5 5/14/5
f 8/16/6 4/32/6 2/17/6
f 2/19/7 9/10/7 12/12/7
f 6/21/8 12/7/8 11/9/8
f 8/23/9 11/4/9 10/6/9
f 4/25/10 10/1/10 9/3/10
o Cube.002_Cube.009
v 1.746913 0.005916 -0.696465
v 1.776015 1.974662 -0.725567
v 1.746913 0.005916 -0.627680
v 1.776015 1.974662 -0.598577
v 1.678128 0.005916 -0.696465
v 1.649025 1.974662 -0.725567
v 1.678128 0.005916 -0.627680
v 1.649025 1.974662 -0.598577
vt 0.009697 0.470193
vt 0.759697 0.675747
vt 0.009697 0.736860
vt 0.764422 0.961166
vt 0.014422 0.755612
vt 0.764422 0.694499
vt 0.759115 0.515429
vt 0.009115 0.309874
vt 0.759115 0.248762
vt 0.010690 0.021579
vt 0.760690 0.227134
vt 0.010690 0.288246
vt 0.908332 0.240787
vt 0.800000 0.156187
vt 0.908332 0.156187
vt 1.000000 0.000000
vt 0.800000 0.156187
vt 0.800000 0.000000
vt 0.759697 0.531305
vt 0.014422 0.900054
vt 0.009115 0.454316
vt 0.760690 0.082691
vt 0.800000 0.240787
vt 1.000000 0.156187
vn 0.5812 0.5696 0.5812
vn 0.5734 -0.5851 -0.5734
vn 0.5812 0.5696 -0.5812
vn -0.5812 0.5696 0.5812
vn 0.5734 -0.5851 0.5734
vn -0.5812 0.5696 -0.5812
vn -0.5734 -0.5851 0.5734
vn -0.5734 -0.5851 -0.5734
usemtl Material.005
s 1
f 16/33/11 13/34/12 14/35/13
f 20/36/14 15/37/15 16/38/11
f 18/39/16 19/40/17 20/41/14
f 14/42/13 17/43/18 18/44/16
f 15/45/15 17/46/18 13/47/12
f 20/48/14 14/49/13 18/50/16
f 16/33/11 15/51/15 13/34/12
f 20/36/14 19/52/17 15/37/15
f 18/39/16 17/53/18 19/40/17
f 14/42/13 13/54/12 17/43/18
f 15/45/15 19/55/17 17/46/18
f 20/48/14 16/56/11 14/49/13
o Cube.001_Cube.008
v 1.746913 0.005916 1.241545
v 1.776016 1.974662 1.212443
v 1.746913 0.005916 1.310330
v 1.776016 1.974662 1.339432
v 1.678128 0.005916 1.241545
v 1.649026 1.974662 1.212443
v 1.678128 0.005916 1.310330
v 1.649026 1.974662 1.339432
vt 0.009697 0.470193
vt 0.759697 0.675747
vt 0.009697 0.736860
vt 0.764422 0.961166
vt 0.014422 0.755612
vt 0.764422 0.694499
vt 0.759115 0.515429
vt 0.009115 0.309874
vt 0.759115 0.248762
vt 0.010690 0.021579
vt 0.760690 0.227134
vt 0.010690 0.288246
vt 0.908332 0.240787
vt 0.800000 0.156187
vt 0.908332 0.156187
vt 1.000000 0.000000
vt 0.800000 0.156187
vt 0.800000 0.000000
vt 0.759697 0.531305
vt 0.014422 0.900054
vt 0.009115 0.454316
vt 0.760690 0.082691
vt 0.800000 0.240787
vt 1.000000 0.156187
vn 0.5812 0.5696 0.5812
vn 0.5734 -0.5851 -0.5734
vn 0.5812 0.5696 -0.5812
vn -0.5812 0.5696 0.5812
vn 0.5734 -0.5851 0.5734
vn -0.5812 0.5696 -0.5812
vn -0.5734 -0.5851 0.5734
vn -0.5734 -0.5851 -0.5734
usemtl Material.005
s 1
f 24/57/19 21/58/20 22/59/21
f 28/60/22 23/61/23 24/62/19
f 26/63/24 27/64/25 28/65/22
f 22/66/21 25/67/26 26/68/24
f 23/69/23 25/70/26 21/71/20
f 28/72/22 22/73/21 26/74/24
f 24/57/19 23/75/23 21/58/20
f 28/60/22 27/76/25 23/61/23
f 26/63/24 25/77/26 27/64/25
f 22/66/21 21/78/20 25/67/26
f 23/69/23 27/79/25 25/70/26
f 28/72/22 24/80/19 22/73/21
o Cube.003_Cube.007
v -1.682854 0.005916 1.241546
v -1.653752 1.974662 1.212444
v -1.682854 0.005916 1.310331
v -1.653752 1.974662 1.339434
v -1.751640 0.005916 1.241546
v -1.780742 1.974662 1.212444
v -1.751640 0.005916 1.310331
v -1.780742 1.974662 1.339434
vt 0.009697 0.470193
vt 0.759697 0.675747
vt 0.009697 0.736860
vt 0.764422 0.961166
vt 0.014422 0.755612
vt 0.764422 0.694499
vt 0.759115 0.515429
vt 0.009115 0.309874
vt 0.759115 0.248762
vt 0.010690 0.021579
vt 0.760690 0.227134
vt 0.010690 0.288246
vt 0.908332 0.240787
vt 0.800000 0.156187
vt 0.908332 0.156187
vt 1.000000 0.000000
vt 0.800000 0.156187
vt 0.800000 0.000000
vt 0.759697 0.531305
vt 0.014422 0.900054
vt 0.009115 0.454316
vt 0.760690 0.082691
vt 0.800000 0.240787
vt 1.000000 0.156187
vn 0.9999 -0.0148 0.0000
vn 0.0000 -0.0148 0.9999
vn -0.9999 -0.0148 0.0000
vn 0.0000 -0.0148 -0.9999
vn 0.0000 -1.0000 0.0000
vn 0.0000 1.0000 0.0000
usemtl Material.005
s off
f 32/81/27 29/82/27 30/83/27
f 36/84/28 31/85/28 32/86/28
f 34/87/29 35/88/29 36/89/29
f 30/90/30 33/91/30 34/92/30
f 31/93/31 33/94/31 29/95/31
f 36/96/32 30/97/32 34/98/32
f 32/81/27 31/99/27 29/82/27
f 36/84/28 35/100/28 31/85/28
f 34/87/29 33/101/29 35/88/29
f 30/90/30 29/102/30 33/91/30
f 31/93/31 35/103/31 33/94/31
f 36/96/32 32/104/32 30/97/32
o Cube.005_Cube.006
v 1.738222 1.764418 -0.693411
v 1.738222 1.978836 -0.693411
v 1.738223 1.764418 1.306589
v 1.738223 1.978836 1.306589
v -1.762187 1.764418 -0.693410
v -1.762187 1.978836 -0.693410
v -1.762187 1.764418 1.306590
v -1.762187 1.978836 1.306590
v 1.654441 1.769550 -0.645542
v 1.654441 1.973704 -0.645542
v 1.654442 1.973704 1.258720
v 1.654442 1.769550 1.258720
v -1.678406 1.973704 1.258721
v -1.678406 1.769550 1.258721
v -1.678407 1.973704 -0.645541
v -1.678407 1.769550 -0.645541
vt 0.666667 0.000000
vt 1.000000 0.333333
vt 0.666667 0.333333
vt 0.333333 0.666667
vt 0.000000 0.333333
vt 0.333333 0.333333
vt 0.366211 0.003111
vt 0.610352 0.458222
vt 0.366211 0.458222
vt 0.756197 0.008427
vt 1.000338 0.330239
vt 0.756197 0.330239
vt 0.383773 0.716663
vt 0.616227 0.283337
vt 0.616227 0.716663
vt 0.573053 0.680130
vt 0.340599 0.986537
vt 0.340599 0.680130
vt 0.050440 0.383329
vt 0.282894 -0.049996
vt 0.282894 0.383329
vt 0.325355 0.674645
vt 0.007978 0.992022
vt 0.007978 0.674645
vt 1.001302 0.698689
vt 0.675947 0.706667
vt 0.667969 0.698689
vt 0.959227 0.897220
vt 0.720930 0.908113
vt 0.715086 0.897220
vt 0.000000 0.000000
vt 0.007978 0.325355
vt 0.964435 0.809220
vt 0.726138 0.820113
vt 0.720295 0.809220
vt 0.341312 0.658689
vt 0.333333 0.666667
vt 0.000000 0.666667
vt 0.720811 0.755702
vt 0.959108 0.740298
vt 0.964951 0.755702
vt 0.902369 0.333333
vt 0.913652 0.658688
vt 0.902369 0.666667
vt 1.000000 0.000000
vt 0.000000 0.666667
vt 0.610352 0.003111
vt 1.000338 0.008427
vt 0.383773 0.283337
vt 0.573053 0.986537
vt 0.050440 -0.049996
vt 0.325355 0.992022
vt 0.993324 0.706667
vt 0.953384 0.908113
vt 0.007978 0.007978
vt 0.958592 0.820113
vt 0.341312 0.341312
vt 0.726654 0.740298
vt 0.913652 0.341312
vn -1.0000 0.0000 0.0000
vn -0.0000 0.0000 -1.0000
vn 1.0000 0.0000 -0.0000
vn 0.0000 0.0000 1.0000
vn -0.0000 0.9943 -0.1066
vn -0.0611 0.9981 0.0000
vn -0.0611 -0.9981 0.0000
vn 0.0611 0.9981 0.0000
vn 0.0611 -0.9981 0.0000
vn -0.0000 -0.9943 -0.1066
vn 0.0000 0.9943 0.1066
vn 0.0000 -0.9943 0.1066
usemtl Material.004
s off
f 37/105/33 40/106/33 38/107/33
f 39/108/34 44/109/34 40/110/34
f 43/111/35 42/112/35 44/113/35
f 41/114/36 38/115/36 42/116/36
f 47/117/35 45/118/35 46/119/35
f 49/120/36 48/121/36 47/122/36
f 51/123/33 50/124/33 49/125/33
f 46/126/34 52/127/34 51/128/34
f 41/129/37 45/130/37 37/131/37
f 43/132/38 52/133/38 41/134/38
f 42/135/39 49/136/39 44/109/39
f 37/137/40 48/138/40 39/139/40
f 40/110/41 46/140/41 38/141/41
f 38/141/42 51/128/42 42/142/42
f 39/143/43 50/144/43 43/145/43
f 44/146/44 47/147/44 40/148/44
f 37/105/33 39/149/33 40/106/33
f 39/108/34 43/150/34 44/109/34
f 43/111/35 41/151/35 42/112/35
f 41/114/36 37/152/36 38/115/36
f 47/117/35 48/153/35 45/118/35
f 49/120/36 50/154/36 48/121/36
f 51/123/33 52/155/33 50/124/33
f 46/126/34 45/156/34 52/127/34
f 41/129/37 52/157/37 45/130/37
f 43/132/38 50/158/38 52/133/38
f 42/135/39 51/159/39 49/136/39
f 37/137/40 45/160/40 48/138/40
f 40/110/41 47/161/41 46/140/41
f 38/141/42 46/126/42 51/128/42
f 39/143/43 48/162/43 50/144/43
f 44/146/44 49/163/44 47/147/44
o Cube.004_Cube.005
v -1.682855 0.005916 -0.696464
v -1.653753 1.974662 -0.725566
v -1.682855 0.005916 -0.627679
v -1.653753 1.974662 -0.598576
v -1.751640 0.005916 -0.696464
v -1.780743 1.974662 -0.725566
v -1.751640 0.005916 -0.627679
v -1.780743 1.974662 -0.598576
vt 0.009697 0.470193
vt 0.759697 0.675747
vt 0.009697 0.736860
vt 0.764422 0.961166
vt 0.014422 0.755612
vt 0.764422 0.694499
vt 0.759115 0.515429
vt 0.009115 0.309874
vt 0.759115 0.248762
vt 0.010690 0.021579
vt 0.760690 0.227134
vt 0.010690 0.288246
vt 0.908332 0.240787
vt 0.800000 0.156187
vt 0.908332 0.156187
vt 1.000000 0.000000
vt 0.800000 0.156187
vt 0.800000 0.000000
vt 0.759697 0.531305
vt 0.014422 0.900054
vt 0.009115 0.454316
vt 0.760690 0.082691
vt 0.800000 0.240787
vt 1.000000 0.156187
vn 0.5812 0.5696 0.5812
vn 0.5734 -0.5851 -0.5734
vn 0.5812 0.5696 -0.5812
vn -0.5812 0.5696 0.5812
vn 0.5734 -0.5851 0.5734
vn -0.5812 0.5696 -0.5812
vn -0.5734 -0.5851 0.5734
vn -0.5734 -0.5851 -0.5734
usemtl Material.005
s 1
f 56/164/45 53/165/46 54/166/47
f 60/167/48 55/168/49 56/169/45
f 58/170/50 59/171/51 60/172/48
f 54/173/47 57/174/52 58/175/50
f 55/176/49 57/177/52 53/178/46
f 60/179/48 54/180/47 58/181/50
f 56/164/45 55/182/49 53/165/46
f 60/167/48 59/183/51 55/168/49
f 58/170/50 57/184/52 59/171/51
f 54/173/47 53/185/46 57/174/52
f 55/176/49 59/186/51 57/177/52
f 60/179/48 56/187/45 54/180/47
